<?xml version="1.0" encoding="utf-8"?>
<!-- Generator: Adobe Illustrator 15.0.0, SVG Export Plug-In . SVG Version: 6.00 Build 0)  -->
<!DOCTYPE svg PUBLIC "-//W3C//DTD SVG 1.1//EN" "http://www.w3.org/Graphics/SVG/1.1/DTD/svg11.dtd">
<svg version="1.1" id="Layer_1" xmlns="http://www.w3.org/2000/svg" xmlns:xlink="http://www.w3.org/1999/xlink" x="0px" y="0px"
	 width="503.383px" height="274.69px" viewBox="0 0 503.383 274.69" enable-background="new 0 0 503.383 274.69"
	 xml:space="preserve">
<g>
	<path d="M26.712,45.34c1.829-0.507,2.841-0.403,3.047,0.305c0.202,0.71-0.13,1.675-0.991,2.894
		c-0.862,1.219-2.184,2.462-3.957,3.729c-1.778,1.27-3.784,2.284-6.016,3.043c-2.232,0.763-4.62,1.067-7.156,0.916
		C9.1,56.073,6.663,55.085,4.33,53.258c-2.235-1.622-3.604-3.884-4.112-6.776c-0.508-2.892-0.128-5.989,1.142-9.288
		c1.268-3.297,3.375-6.572,6.32-9.82c2.943-3.248,6.775-6.113,11.496-8.602c4.72-2.488,10.301-4.343,16.75-5.562
		c6.443-1.216,13.779-1.467,22-0.759c3.146-2.942,7.055-5.481,11.726-7.612c4.669-2.132,10.101-3.503,16.292-4.111
		c8.527-0.917,15.859-0.966,22.002-0.15c6.141,0.812,11.141,2.052,14.998,3.729c3.856,1.672,6.623,3.55,8.298,5.633
		c1.675,2.082,2.31,3.935,1.903,5.555c-0.609,2.234-2.031,4.037-4.262,5.407c-2.234,1.373-5.814,2.26-10.734,2.666
		c-4.927,0.406-11.473,0.205-19.643-0.607c-8.173-0.814-18.499-2.285-30.986-4.418L62.19,17.78
		c-1.423,2.742-1.576,5.736-0.455,8.984c0.81,2.232,2.664,3.783,5.558,4.645c2.891,0.865,6.47,1.293,10.732,1.293
		c4.265,0,9.036-0.307,14.313-0.912c5.277-0.611,10.734-1.217,16.369-1.826c5.633-0.611,11.214-1.092,16.749-1.449
		c5.531-0.355,10.709-0.305,15.53,0.152c4.821,0.459,9.086,1.447,12.793,2.971c3.706,1.521,6.475,3.857,8.299,7.004
		c1.828,3.149,2.26,6.75,1.295,10.81c-0.965,4.061-2.969,8.248-6.015,12.561c-3.045,4.317-6.88,8.63-11.498,12.945
		c-4.621,4.314-9.669,8.323-15.153,12.028c-5.48,3.707-11.14,6.927-16.976,9.669c-5.838,2.74-11.498,4.719-16.977,5.938
		c-5.482,1.219-10.584,1.521-15.305,0.914c-4.719-0.61-8.602-2.436-11.648-5.482c-3.146-3.147-4.923-6.676-5.328-10.582
		c-0.406-3.904,0.203-7.916,1.827-12.03c1.623-4.109,4.085-8.119,7.385-12.027c3.298-3.908,7.083-7.409,11.345-10.506
		s8.855-5.582,13.777-7.461c4.923-1.876,9.77-2.867,14.541-2.972c1.319,0,2.335,0.129,3.046,0.383
		c0.709,0.253,1.065,0.585,1.065,0.989c0,0.406-0.406,0.813-1.218,1.219c-0.813,0.407-2.032,0.66-3.652,0.762
		c-4.874,0.304-9.239,1.395-13.095,3.272c-3.859,1.88-7.184,4.188-9.976,6.929c-2.792,2.741-5,5.736-6.621,8.984
		c-1.624,3.25-2.59,6.471-2.893,9.669c-0.307,3.195,0.049,6.189,1.065,8.983c1.013,2.792,2.79,5.001,5.329,6.623
		c3.35,2.232,7.712,2.991,13.095,2.284c5.378-0.714,11.038-2.385,16.978-5.024c5.937-2.64,11.772-5.989,17.51-10.05
		c5.735-4.06,10.658-8.322,14.771-12.791c4.112-4.467,7.007-8.855,8.682-13.17c1.676-4.315,1.393-8.095-0.839-11.346
		c-2.438-3.552-6.194-5.706-11.27-6.47c-5.078-0.762-10.838-0.734-17.284,0.076c-6.447,0.812-13.272,2.105-20.479,3.883
		c-7.208,1.776-14.11,3.377-20.707,4.794c-6.6,1.427-12.563,2.389-17.892,2.896c-5.33,0.509-9.417-0.05-12.256-1.676
		c-2.339-1.318-4.139-2.993-5.408-5.023c-1.27-2.031-2.031-4.238-2.283-6.623c-0.254-2.383,0.024-4.873,0.838-7.461
		c0.811-2.59,2.131-5.101,3.959-7.539c-7.82-0.404-14.366,0.154-19.643,1.675c-5.277,1.522-9.44,3.479-12.486,5.864
		c-3.044,2.385-5.077,4.973-6.09,7.766c-1.017,2.791-1.219,5.279-0.609,7.459c0.609,2.186,1.927,3.883,3.959,5.101
		C20.978,46.101,23.566,46.253,26.712,45.34z M127.817,14.582c0.199-1.927-0.84-3.576-3.123-4.948
		c-2.284-1.371-5.253-2.437-8.907-3.197c-3.654-0.762-7.817-1.193-12.487-1.295c-4.669-0.099-9.338,0.132-14.007,0.687
		c-4.668,0.56-9.058,1.473-13.17,2.741c-4.111,1.269-7.486,2.918-10.125,4.947l2.894,0.46c10.453,2.028,19.36,3.476,26.721,4.335
		c7.358,0.866,13.398,1.273,18.12,1.22c4.719-0.05,8.195-0.534,10.429-1.447C126.394,17.172,127.61,16.004,127.817,14.582z"/>
	<path d="M180.981,72.688c-0.6,0.685-1.326,1.304-2.178,1.857c-0.855,0.558-1.816,0.919-2.883,1.089
		c-1.068,0.172-2.199,0.172-3.396,0c-1.195-0.17-2.35-0.598-3.459-1.282c-1.195-0.681-1.965-1.94-2.305-3.776
		c-0.342-1.838-0.467-3.76-0.383-5.767c0.082-2.005,0.34-3.822,0.768-5.444c0.426-1.622,0.852-2.604,1.281-2.948
		c0.939-0.681,2.049-0.788,3.332-0.318c1.279,0.471,2.178,1.046,2.689,1.73c0.254,0.34,0.361,0.917,0.318,1.729
		c-0.043,0.812-0.127,1.774-0.254,2.882c-0.129,1.11-0.277,2.287-0.449,3.523c-0.172,1.238-0.172,2.412,0,3.522
		c0.084,0.94,0.34,1.646,0.768,2.115c0.426,0.469,0.896,0.727,1.41,0.768c0.514,0.044,1.023-0.064,1.537-0.319
		c0.514-0.257,0.98-0.598,1.41-1.024c0.768-0.94,1.451-1.965,2.049-3.076c0.598-1.108,1.066-2.092,1.408-2.946
		c0.256-0.938,0.748-1.346,1.473-1.217s0.961,0.791,0.705,1.984c-0.342,1.199-0.768,2.287-1.279,3.267
		C183.032,70.019,182.177,71.236,180.981,72.688z M173.423,34.768c1.195-0.084,2.477,0.301,3.842,1.152
		c1.367,0.855,1.965,1.922,1.795,3.203c-0.172,0.599-0.492,1.261-0.961,1.985c-0.471,0.728-1.025,1.409-1.664,2.051
		c-0.643,0.64-1.24,1.216-1.795,1.729c-0.557,0.513-0.961,0.812-1.217,0.896c-0.686,0.43-1.367,0.577-2.051,0.449
		c-0.684-0.127-1.281-0.385-1.793-0.768c-0.514-0.385-0.92-0.854-1.217-1.409c-0.299-0.557-0.492-1.091-0.576-1.603
		c-0.088-0.513,0.041-1.196,0.383-2.05c0.342-0.852,0.789-1.686,1.346-2.496c0.555-0.812,1.174-1.539,1.857-2.178
		C172.056,35.09,172.737,34.768,173.423,34.768z"/>
	<path d="M186.989,69.02c0.426,4.187,1.133,7.687,2.113,10.505c0.982,2.818,2.199,4.313,3.65,4.483
		c1.195,0.172,2.414-0.384,3.652-1.665c1.238-1.282,2.199-2.946,2.885-4.996c0.51-1.622,1.088-2.264,1.729-1.923
		c0.641,0.344,0.832,1.198,0.576,2.563c-0.172,0.77-0.535,1.729-1.09,2.883c-0.557,1.153-1.326,2.286-2.305,3.396
		c-0.984,1.11-2.18,2.049-3.59,2.817c-1.408,0.769-3.008,1.152-4.803,1.152c-2.393-0.084-4.336-1.218-5.828-3.394
		c-1.494-2.179-2.584-5.062-3.268-8.649c-0.682-3.586-1.023-7.642-1.023-12.17c0-4.524,0.318-9.159,0.959-13.898
		c0.643-4.74,1.557-9.371,2.756-13.899c1.193-4.525,2.646-8.561,4.355-12.107c1.707-3.542,3.607-6.405,5.701-8.583
		c2.092-2.178,4.332-3.267,6.725-3.267c1.793,0,3.074,1.071,3.842,3.204c0.77,2.135,1.09,4.91,0.961,8.327
		c-0.127,3.416-0.662,7.238-1.6,11.465c-0.941,4.229-2.18,8.413-3.715,12.554c-1.537,4.144-3.332,8.028-5.381,11.658
		c-2.049,3.631-4.229,6.556-6.533,8.776L186.989,69.02z M194.292,21.748c-1.539,0.344-2.863,1.986-3.971,4.934
		c-1.111,2.945-1.986,6.576-2.627,10.889c-0.639,4.312-1.047,8.965-1.217,13.963c-0.172,4.997-0.086,9.716,0.256,14.155
		c1.621-1.45,3.141-3.606,4.549-6.468c1.41-2.861,2.646-5.979,3.715-9.353c1.066-3.374,1.9-6.789,2.496-10.248
		c0.598-3.46,0.896-6.575,0.896-9.353c0-2.775-0.318-4.975-0.957-6.598C196.79,22.049,195.743,21.408,194.292,21.748z"/>
	<path d="M223.37,69.403c0.426,0.685,0.641,1.538,0.641,2.562c2.561,0.256,4.783,0.108,6.66-0.448
		c1.877-0.555,3.287-1.045,4.229-1.473c1.195-0.428,1.578-0.192,1.152,0.705c-0.428,0.896-1.197,1.645-2.305,2.242
		c-0.686,0.427-1.986,0.896-3.908,1.407c-1.922,0.515-3.994,0.6-6.213,0.257c-0.256,1.282-0.686,2.627-1.281,4.034
		c-0.598,1.412-1.326,2.757-2.178,4.037c-0.855,1.28-1.795,2.413-2.818,3.394c-1.025,0.983-2.094,1.688-3.203,2.114
		c-1.537,0.6-3.287,0.491-5.252-0.319c-1.967-0.812-3.738-2.07-5.316-3.779c-1.582-1.708-2.818-3.694-3.715-5.956
		c-0.896-2.264-1.047-4.55-0.449-6.855c0.256-1.024,0.875-1.94,1.857-2.754c0.98-0.809,1.986-1.365,3.01-1.664
		c1.025-0.299,1.879-0.322,2.564-0.066c0.682,0.257,0.852,0.983,0.512,2.179c-0.258,0.942-0.365,2.328-0.32,4.163
		c0.041,1.839,0.277,3.652,0.705,5.446c0.426,1.792,1.107,3.328,2.049,4.61c0.939,1.281,2.135,1.839,3.588,1.666
		c0.596,0,1.193-0.403,1.791-1.217c0.6-0.812,1.092-1.814,1.475-3.011c0.385-1.194,0.641-2.454,0.77-3.779
		c0.127-1.323,0.107-2.541-0.064-3.651c-0.684-0.426-1.303-0.939-1.857-1.537c-0.557-0.597-0.92-1.154-1.088-1.665
		c-0.344-0.854-0.174-1.579,0.512-2.18c0.684-0.596,1.621-0.937,2.818-1.024h0.512c0.852,0.088,1.75,0.321,2.691,0.705
		C221.874,67.932,222.685,68.551,223.37,69.403z"/>
	<path d="M231.95,71.198c0.771-1.451,1.73-2.691,2.885-3.716c1.152-1.023,2.326-1.794,3.523-2.307
		c1.195-0.512,2.369-0.747,3.521-0.705c1.154,0.045,2.156,0.406,3.012,1.091c1.107,0.938,1.686,2.113,1.729,3.522
		s-0.32,2.818-1.088,4.228c-0.77,1.409-1.902,2.689-3.395,3.843c-1.496,1.153-3.184,1.901-5.061,2.242
		c0.256,0.685,0.51,1.304,0.768,1.857c0.256,0.557,0.598,1.048,1.025,1.474c1.025,1.452,2.133,2.327,3.33,2.626
		c1.195,0.3,2.371,0.173,3.523-0.385c1.152-0.555,2.221-1.493,3.201-2.818c0.982-1.322,1.814-2.924,2.5-4.804
		c0.34-0.938,0.896-1.346,1.666-1.217c0.768,0.129,0.938,0.791,0.51,1.984c-0.939,2.735-2.305,5.125-4.098,7.176
		c-1.793,2.049-3.715,3.479-5.766,4.292c-2.049,0.812-4.121,0.938-6.211,0.382c-2.094-0.553-3.951-2.025-5.576-4.418
		c-0.768-1.11-1.279-2.37-1.535-3.779s-0.32-2.774-0.193-4.101c0.129-1.323,0.342-2.562,0.641-3.716
		C231.161,72.799,231.524,71.883,231.95,71.198z M238.101,68.637c-0.939,0.428-1.535,1.494-1.793,3.201
		c-0.256,1.711-0.172,3.545,0.258,5.509c1.619-0.769,2.773-1.707,3.457-2.818c0.682-1.109,1.025-2.178,1.025-3.203
		c0-1.024-0.277-1.812-0.832-2.37C239.659,68.401,238.954,68.295,238.101,68.637z"/>
	<path d="M265.897,71.07c-0.684,0.427-1.303,1.11-1.857,2.049c-0.557,0.939-1.004,1.964-1.344,3.073
		c-0.342,1.111-0.514,2.225-0.514,3.332c0,1.11,0.172,2.093,0.514,2.947c0.256,0.685,0.768,1.26,1.537,1.728
		c0.768,0.473,1.686,0.77,2.754,0.898c1.066,0.126,2.197,0.043,3.396-0.256c1.193-0.299,2.305-0.963,3.33-1.987
		c1.621-1.536,2.773-3.371,3.457-5.508c0.086-0.426,0.299-0.747,0.641-0.96s0.643-0.277,0.898-0.194
		c0.256,0.087,0.467,0.28,0.641,0.576c0.17,0.303,0.17,0.751,0,1.346c-0.342,1.199-0.77,2.243-1.281,3.14s-1.111,1.816-1.795,2.754
		c-1.281,1.71-2.883,3.183-4.803,4.42c-1.922,1.238-3.842,2.114-5.764,2.625c-1.922,0.514-3.738,0.622-5.447,0.323
		c-1.709-0.301-3.031-1.091-3.969-2.37c-0.686-0.854-1.09-1.988-1.219-3.396c-0.127-1.41,0-2.882,0.385-4.42
		c0.385-1.536,1.004-3.095,1.857-4.676c0.852-1.58,1.922-3.012,3.203-4.292c-1.025,0.173-1.967,0.236-2.818,0.192
		c-0.855-0.041-1.625-0.106-2.305-0.192c-0.342,1.11-0.666,2.2-0.961,3.268c-0.301,1.067-0.535,1.857-0.707,2.37
		c-0.426,1.024-1.004,1.473-1.729,1.346c-0.725-0.129-0.918-0.747-0.576-1.858c0.256-0.852,0.514-1.794,0.768-2.818
		c0.258-1.026,0.512-2.006,0.77-2.946c-1.621-0.683-2.668-1.62-3.139-2.82c-0.469-1.192-0.619-2.347-0.449-3.457
		c0.172-1.025,0.559-1.922,1.154-2.689c0.598-0.77,1.279-1.366,2.051-1.793c0.768-0.428,1.514-0.685,2.24-0.771
		c0.725-0.085,1.346,0.086,1.857,0.513c0.939,0.855,1.324,2.01,1.152,3.458c-0.172,1.454-0.557,3.034-1.152,4.739
		c0.256,0.258,0.873,0.449,1.857,0.578c0.98,0.128,2.453-0.062,4.42-0.578c1.965-0.424,3.182-0.296,3.652,0.386
		C267.071,69.832,266.837,70.473,265.897,71.07z"/>
</g>
<g>
	<path d="M337.435,21.15c-0.616,2.983-1.03,6.968-1.235,11.954c-0.207,4.989-0.183,10.179,0.078,15.58
		c0.254,5.398,0.821,10.618,1.698,15.652c0.873,5.042,2.18,9.155,3.932,12.342c1.333,2.677,1.978,4.576,1.926,5.708
		c-0.052,1.132-0.593,1.414-1.618,0.847c-1.03-0.562-2.417-1.978-4.167-4.241c-1.747-2.261-3.598-5.4-5.552-9.407
		c-0.207-0.514-0.461-1.004-0.769-1.467c-0.311-0.463-0.567-0.95-0.771-1.467c-5.247-5.652-10.183-10.355-14.808-14.112
		c-4.628-3.752-8.819-6.862-12.572-9.33c-3.756-2.47-7.149-4.423-10.181-5.863c-3.033-1.44-5.604-2.674-7.711-3.702
		c-2.109-1.027-3.782-2.006-5.014-2.93c-1.234-0.926-1.957-2.108-2.161-3.549c-0.412-1.953,0.9-3.958,3.937-6.014
		c3.031-2.057,7.17-4.062,12.417-6.016c5.242-1.954,11.309-3.831,18.202-5.632c6.886-1.797,14.034-3.393,21.437-4.78
		c7.406-1.387,14.809-2.493,22.214-3.317c7.403-0.82,14.213-1.284,20.438-1.387c6.22-0.103,11.566,0.229,16.038,1.004
		c4.473,0.769,7.53,2.079,9.176,3.933c1.644,1.85,1.67,5.319,0.078,10.408c-1.597,5.09-4.318,11.005-8.174,17.74
		c-3.857,6.734-8.636,14.011-14.343,21.827c-5.708,7.813-11.93,15.397-18.663,22.75c-6.738,7.354-13.755,14.14-21.055,20.36
		c-7.304,6.222-14.451,11.156-21.442,14.807c-6.994,3.649-13.6,5.684-19.822,6.093c-6.222,0.411-11.643-1.542-16.271-5.861
		c-3.188-2.879-5.12-6.013-5.785-9.407c-0.67-3.393-0.618-6.634,0.153-9.719c0.773-3.084,2.029-5.938,3.779-8.561
		c1.749-2.621,3.447-4.628,5.091-6.014c1.643-1.389,2.979-2.03,4.009-1.927c1.028,0.103,1.234,1.234,0.619,3.393
		c-1.134,4.628-1.183,8.792-0.153,12.493c1.026,3.702,2.827,6.682,5.397,8.947c2.568,2.259,5.656,3.703,9.256,4.319
		c3.598,0.616,7.404,0.154,11.416-1.39c6.373-2.569,12.8-6.193,19.278-10.873c6.479-4.677,12.621-9.924,18.432-15.734
		c5.807-5.808,11.081-11.901,15.81-18.277c4.727-6.375,8.586-12.495,11.57-18.355c2.982-5.862,4.881-11.234,5.706-16.117
		c0.823-4.883,0.257-8.767-1.696-11.648c-1.957-2.876-5.478-4.883-10.569-6.014c-5.088-1.128-10.925-1.644-17.505-1.543
		c-6.58,0.104-13.47,0.749-20.666,1.929c-7.201,1.184-13.938,2.674-20.21,4.472c-6.271,1.8-11.646,3.806-16.115,6.018
		c-4.473,2.21-7.227,4.395-8.254,6.555c-0.616,1.337,0.049,2.93,2.006,4.779c1.952,1.853,4.628,4.038,8.021,6.557
		c3.393,2.522,7.25,5.376,11.567,8.56c4.32,3.19,8.483,6.787,12.495,10.798c-2.058-4.934-3.497-9.408-4.317-13.42
		c-0.826-4.008-0.67-7.557,0.46-10.642c0.823-2.161,2.133-4.343,3.935-6.556c1.796-2.209,3.569-4.01,5.322-5.398
		c1.747-1.389,3.238-2.133,4.473-2.238C337.435,17.964,337.844,18.989,337.435,21.15z"/>
	<path d="M415.36,48.506c2.051,0,3.822-0.256,5.318-0.769c1.494-0.513,2.668-0.938,3.521-1.281c1.195-0.425,1.58-0.192,1.154,0.705
		c-0.43,0.896-1.197,1.646-2.307,2.24c-0.598,0.344-1.559,0.728-2.883,1.154s-2.84,0.642-4.547,0.642
		c-0.088,2.222-0.855,4.314-2.307,6.277c-1.455,1.963-3.418,3.416-5.893,4.354c-1.537,0.598-3.119,0.919-4.74,0.961
		c-1.623,0.044-3.117-0.171-4.485-0.642c-1.365-0.468-2.582-1.193-3.648-2.177c-1.07-0.982-1.857-2.156-2.369-3.521
		c-0.514-1.367-0.725-2.818-0.643-4.357c0.084-1.537,0.471-3.031,1.154-4.483c0.682-1.451,1.621-2.755,2.816-3.906
		c1.193-1.154,2.604-1.987,4.229-2.499c1.451-0.428,2.924-0.428,4.418,0s2.582,1.112,3.268,2.051
		c0.428,0.685,0.641,1.452,0.641,2.304c0.768-0.512,1.621-0.768,2.562-0.768h0.256c0.854,0,1.664,0.215,2.434,0.641
		c0.77,0.429,1.363,1.151,1.793,2.178L415.36,48.506z M406.649,58.626c1.453-0.169,2.646-0.98,3.588-2.434
		c0.939-1.451,1.365-3.117,1.281-4.995c-1.195,0.084-2.328-0.106-3.395-0.577c-1.068-0.468-1.646-1.174-1.73-2.114
		c-0.174-0.769,0-1.408,0.512-1.923c-0.172-0.681-0.703-1.278-1.6-1.792c-0.896-0.512-1.816-0.553-2.754-0.13
		c-1.197,0.516-2.115,1.497-2.756,2.948c-0.641,1.452-0.791,3.033-0.447,4.739c0.34,2.05,1.217,3.673,2.625,4.868
		C403.383,58.414,404.94,58.883,406.649,58.626z"/>
	<path d="M440.467,46.456c0.256-0.255,0.811-0.32,1.666-0.192c0.852,0.129,1.707,0.386,2.561,0.768
		c0.855,0.387,1.602,0.834,2.242,1.346c0.643,0.515,0.918,1.024,0.834,1.539c-0.086,0.598-0.301,1.047-0.641,1.346
		c-0.342,0.299-0.77,0.661-1.281,1.087c-0.512,0.429-1.047,1.025-1.602,1.794s-1.047,1.838-1.473,3.204
		c-0.43,1.623-0.641,3.438-0.641,5.443c0,2.007,0.148,4.144,0.447,6.406s0.684,4.632,1.152,7.11
		c0.469,2.477,0.961,4.951,1.475,7.429c8.711,1.109,16.504,1.259,23.379,0.449c6.875-0.812,12.725-1.901,17.551-3.268
		c4.824-1.365,8.627-2.647,11.402-3.843c2.773-1.195,4.461-1.623,5.061-1.282c0.596,0.344,0.852,1.024,0.768,2.051
		c-0.086,1.024-0.385,2.157-0.896,3.395c-0.514,1.238-1.135,2.457-1.859,3.651s-1.473,2.05-2.24,2.562
		c-1.623,1.195-4.209,1.921-7.752,2.178c-3.543,0.255-7.707,0.255-12.488,0c-4.785-0.257-9.992-0.705-15.629-1.346
		c-5.637-0.642-11.273-1.345-16.91-2.114c0.512,2.818,0.918,5.551,1.217,8.198s0.385,5.125,0.256,7.432
		c-0.129,2.305-0.535,4.376-1.217,6.212c-0.686,1.838-1.795,3.311-3.332,4.42c-2.648,1.965-5.869,2.733-9.668,2.308
		c-3.803-0.429-7.773-1.562-11.916-3.396c-4.139-1.838-8.217-4.185-12.234-7.045c-4.012-2.862-7.514-5.744-10.505-8.648
		c-2.988-2.902-5.271-5.615-6.852-8.135s-1.988-4.376-1.217-5.57c0.768-1.282,2.178-2.179,4.227-2.691
		c2.047-0.514,4.933-0.703,8.646-0.575c3.719,0.127,8.309,0.532,13.771,1.216c5.465,0.685,12,1.581,19.604,2.69
		c-0.514-3.587-0.92-7.194-1.219-10.825c-0.301-3.629-0.191-7.151,0.32-10.568c-1.879,1.71-3.951,2.711-6.213,3.01
		c-2.264,0.3-4.25-0.232-5.957-1.603c-1.965-1.536-3.01-3.669-3.139-6.404c-0.129-2.731,0.748-5.337,2.625-7.815
		c1.879-2.475,4.166-4.034,6.855-4.674c2.689-0.642,5.016-0.235,6.982,1.216c1.191,1.024,2.047,2.265,2.561,3.715
		C439.442,47.609,439.868,46.886,440.467,46.456z M435.088,108.589c1.195-1.026,2.027-2.352,2.498-3.972
		c0.469-1.624,0.703-3.46,0.703-5.509c0-2.05-0.15-4.272-0.449-6.661c-0.297-2.393-0.66-4.867-1.086-7.431
		c-4.785-0.597-9.332-1.132-13.643-1.6c-4.312-0.47-8.156-0.771-11.529-0.897c-3.375-0.129-6.17-0.044-8.393,0.254
		c-2.221,0.303-3.629,0.921-4.227,1.859c-0.771,1.366-0.62,3.095,0.447,5.188c1.07,2.092,2.689,4.228,4.869,6.403
		c2.178,2.18,4.719,4.293,7.621,6.343c2.904,2.05,5.828,3.735,8.777,5.061c2.945,1.323,5.699,2.134,8.262,2.434
		C431.502,110.358,433.553,109.868,435.088,108.589z M430.221,60.293c1.195,0.427,2.477,0.043,3.842-1.154
		c1.365-1.195,2.393-2.774,3.076-4.74c0.594-1.705,0.68-3.201,0.256-4.482c-0.428-1.282-1.281-2.134-2.562-2.563
		c-1.195-0.426-2.393-0.34-3.588,0.257c-1.195,0.599-2.135,1.88-2.818,3.843c-0.768,1.967-0.961,3.823-0.574,5.574
		C428.235,58.777,429.024,59.866,430.221,60.293z"/>
</g>
<g>
	<path d="M173.226,115.702c-1.348,0.927-2.379,1.495-3.094,1.704c-0.716,0.212-1.537,0.442-2.463,0.695
		c-4.378,1.853-8.378,3.914-11.997,6.188c-3.453,1.853-5.746,3.473-6.882,4.861c-1.137,1.39-2.547,3.811-4.23,7.262
		c-2.021,4.378-4.167,9.894-6.44,16.543c-0.927,2.947-2.083,5.683-3.473,8.208s-2.547,5.052-3.473,7.577
		c-2.273,5.979-4.4,11.681-6.377,17.111c-1.979,5.43-3.769,11.219-5.367,17.363c-1.18,3.958-3.137,10.188-5.872,18.689
		c-2.737,8.505-4.104,14.481-4.104,17.933v1.01c0,3.453,2.315,5.979,6.946,7.577c0.673,0.675,2.21,1.768,4.609,3.283
		s3.599,2.61,3.599,3.283c0,0.928-0.337,1.39-1.01,1.39c-0.927,0-1.559-0.336-1.894-1.011c-0.337-0.673-1.768-1.263-4.293-1.768
		c-2.778-0.253-5.557-0.253-8.334,0c-2.778,0.252-5.831,0.485-9.156,0.694c-3.327,0.211-6.251,0.315-8.776,0.315
		c-2.526,0-5.389,0.233-8.587,0.694c-3.2,0.464-5.726,0.947-7.577,1.453c-1.18,0.169-5.683,1.642-13.512,4.419
		c-1.6,0-2.147-0.337-1.642-1.01c0.42-2.525,1.494-5.114,3.22-7.767c1.725-2.651,3.262-5.366,4.609-8.145
		c0.757-2.526,1.598-5.683,2.525-9.472c0.925-3.788,1.389-7.407,1.389-10.86l-1.768-21.973v-0.379
		c-0.927-11.701-2.715-23.088-5.367-34.159c-2.652-11.069-4.905-22.119-6.756-33.148c-1.348-6.397-2.715-11.723-4.104-15.975
		c-1.389-4.251-3.473-8.903-6.251-13.954c-2.021-3.451-4.757-7.534-8.208-12.25c-3.453-4.714-7.703-7.071-12.754-7.071H13.605
		c-5.051,0-7.577,2.525-7.577,7.576c0.422,5.052,2.61,7.368,6.566,6.946c2.021,0,2.695,0.801,2.021,2.399
		c-1.346,0.169-2.883,0.441-4.609,0.82c-1.724,0.379-3.514,0.568-5.367,0.568c-1.178,0-1.768-0.126-1.768-0.379
		c0-2.104-0.398-3.956-1.2-5.557c-0.799-1.598-1.2-4.124-1.2-7.576v-2.399c0-3.451,2.822-6.504,8.461-9.155
		c5.641-2.652,10.061-3.979,13.26-3.979h3.788c6.482,0,12.881,2.989,19.195,8.966c6.314,5.979,10.817,11.03,13.512,15.154
		c1.178,1.853,3.157,4.631,5.936,8.334c0.673,1.348,1.409,2.822,2.21,4.42c0.799,1.601,1.788,3.116,2.967,4.547
		c1.346,2.525,2.778,5.789,4.294,9.786c1.515,4,2.946,7.388,4.293,10.166c2.778,6.483,4.966,13.745,6.566,21.783
		c1.598,8.041,3.199,15.849,4.799,23.426c0.673,3.453,1.367,7.64,2.083,12.564c0.714,4.926,1.074,9.114,1.074,12.565
		c0,2.105,0.23,4.294,0.694,6.566c0.462,2.273,0.694,4.464,0.694,6.566c0,1.181,0.105,2.337,0.316,3.474
		c0.209,1.136,0.442,2.042,0.694,2.715c0.253,3.453,0.926,5.178,2.021,5.178c0-2.021,2.125-9.134,6.377-21.342
		c4.25-12.206,6.965-20.035,8.145-23.488c1.346-4.377,2.314-8.398,2.905-12.061c0.588-3.662,1.219-7.893,1.894-12.691
		c0.252-2.103,0.272-4.482,0.063-7.135c-0.211-2.651,0.02-4.988,0.695-7.009c0.167-0.757,0.673-2.798,1.515-6.124
		c0.841-3.325,1.263-5.45,1.263-6.377c0-5.978-1.853-9.071-5.557-9.282c-3.706-0.209-5.556-1.578-5.556-4.104
		c0-0.505,0.335-0.757,1.01-0.757c3.704,0,6.945,0.59,9.724,1.768c2.778,1.18,6.566,1.768,11.365,1.768
		c2.021,0,5.45-0.524,10.292-1.578c4.84-1.052,7.976-1.914,9.408-2.589l20.332-6.188c2.021-0.506,3.031-0.421,3.031,0.252
		C174.236,114.735,173.898,115.449,173.226,115.702z"/>
	<path d="M181.181,204.982c0-2.021,0-4.187,0-6.503c0-2.314,0.252-4.524,0.758-6.63c0.252-1.346,0.316-3.409,0.189-6.188
		s-0.189-5.052-0.189-6.819c0-2.104-0.17-4.25-0.505-6.44c-0.337-2.188-0.505-4.294-0.505-6.314c0-0.758-0.063-1.768-0.189-3.03
		s-0.189-2.356-0.189-3.283c-0.252-0.926-0.315-2.021-0.189-3.283c0.126-1.264,0.189-2.441,0.189-3.536
		c-0.505-2.104-0.694-4.294-0.568-6.566c0.126-2.273,0.189-4.462,0.189-6.567c-0.252-1.598-0.611-2.525-1.073-2.778
		c-0.464-0.252-1.117-0.84-1.958-1.768c-1.685-1.093-3.873-1.642-6.566-1.642c-0.928,0-2.084,0.106-3.473,0.315
		c-1.389,0.211-2.084-0.356-2.084-1.704c0-0.673,0.799-1.137,2.399-1.39c1.598-0.252,2.861-0.462,3.789-0.631
		c2.273-0.253,5.85-0.379,10.734-0.379c2.273,0,4.903,0.463,7.893,1.389c2.987,0.928,5.999,1.389,9.029,1.389l9.598-0.378
		c0.674,0,1.809,0.106,3.41,0.315c1.598,0.211,2.398,0.568,2.398,1.073c0,0.675-1.072,1.011-3.221,1.011c-2.146,0-3.598,0-4.355,0
		c-0.928,0.252-1.957,0.611-3.094,1.073c-1.137,0.463-2.043,0.694-2.715,0.694c-2.273,1.095-3.41,3.432-3.41,7.009
		c0,3.579,0,6.294,0,8.145c0,2.273,0.168,4.609,0.506,7.009c0.334,2.399,0.504,4.905,0.504,7.514c0,2.526,0,5.052,0,7.577
		s0,5.052,0,7.577c0,2.695,0.168,5.136,0.506,7.324c0.336,2.19,0.631,4.463,0.883,6.819c0,1.348,0.105,2.547,0.316,3.599
		c0.209,1.054,0.316,2.127,0.316,3.221c0,2.105,0,4.084,0,5.935c0,1.854,0,3.662,0,5.431c0,4.883,1.389,8.461,4.166,10.733
		c1.852,1.348,3.809,2.254,5.873,2.716c2.062,0.463,3.766,1.41,5.113,2.841c0.758,1.348-2.041,1.516-8.396,0.505
		c-6.357-1.01-9.999-1.642-10.924-1.894c-0.675,0-2.379-0.462-5.114-1.39c-2.737-0.925-5.493-1.516-8.271-1.768
		c-3.706,0-8.082,0.464-13.133,1.389c-2.021,0.675-3.031,0.802-3.031,0.379c0.167-0.925,1.178-1.642,3.031-2.146
		c2.104-0.168,3.493-0.505,4.167-1.011c3.704-2.272,5.765-4.335,6.188-6.188C180.844,214.034,181.181,209.781,181.181,204.982z"/>
	<path d="M324.89,121.511c-0.675,1.853-2.674,4.104-5.998,6.756c-3.327,2.652-5.663,4.441-7.009,5.367
		c-0.928,0.422-2.254,1.326-3.978,2.715c-1.727,1.39-2.716,2.421-2.968,3.094c-1.601,4.379-2.399,9.809-2.399,16.291
		c0,3.453,0.167,6.945,0.505,10.481c0.335,3.535,0.505,7.03,0.505,10.481c0,3.452,0.104,7.03,0.316,10.733
		c0.209,3.706,0.441,7.156,0.694,10.355c0,2.021,0.588,5.01,1.768,8.966c0.253,1.348,0.777,2.651,1.579,3.915
		c0.799,1.263,1.534,2.483,2.209,3.662c0.421,1.348,0.758,2.715,1.011,4.104c0.253,1.39,0.714,2.759,1.389,4.104
		c0.253,0.758,1.115,1.938,2.589,3.536c1.473,1.6,2.21,2.61,2.21,3.03c0,3.031-1.938,4.546-5.809,4.546
		c-1.853,0-3.747-0.799-5.683-2.399c-1.938-1.598-3.283-3.113-4.041-4.546c-1.096-1.346-2.463-2.778-4.104-4.293
		c-1.642-1.516-3.011-2.946-4.104-4.294c-1.433-1.431-3.012-2.715-4.736-3.852c-1.727-1.137-3.137-2.378-4.23-3.726
		c-1.6-1.431-3.094-2.819-4.482-4.167c-1.39-1.346-2.759-2.734-4.104-4.167c-0.927-0.673-2.316-2.104-4.167-4.294
		c-1.853-2.188-3.031-3.83-3.536-4.925c-0.675-0.926-1.748-2.652-3.22-5.178c-1.475-2.525-2.548-4.25-3.221-5.178
		c-1.18-1.178-2.525-2.63-4.041-4.356c-1.516-1.725-2.821-3.177-3.915-4.356c-0.505,0-1.432-0.568-2.777-1.705
		c-1.348-1.137-2.021-1.578-2.021-1.326c-0.506,4.799-0.758,7.324-0.758,7.577c0,1.348,0.126,2.651,0.379,3.915
		c0.252,1.263,0.461,2.61,0.631,4.041c0,1.095,0,2.568,0,4.42c0,1.853,0,3.115,0,3.788c0,3.03-0.043,5.979-0.126,8.84
		c-0.085,2.862,0.209,5.43,0.884,7.703c0.673,4.884,2.861,8.461,6.566,10.733c0.926,0.675,2.757,1.812,5.493,3.41
		c2.735,1.6,4.104,2.989,4.104,4.167c0,0.675-1.137,1.011-3.409,1.011c-2.105,0-4.021-0.231-5.746-0.695
		c-1.727-0.461-3.599-0.694-5.619-0.694c-1.854,0-4.168,0.253-6.946,0.758c-2.272,0-4.589,0.211-6.945,0.632
		c-0.927,0.252-2.758,0.716-5.493,1.389c-2.736,0.675-4.694,0.928-5.872,0.758c-2.273-0.505-2.357-1.431-0.253-2.778
		c0.673-0.673,1.914-1.367,3.726-2.084c1.81-0.714,3.094-1.408,3.852-2.083c0.673-0.673,1.346-2.04,2.021-4.104
		c0.673-2.062,1.137-3.935,1.39-5.619c0.252-3.872,0.84-7.597,1.768-11.176c0.926-3.578,1.389-7.43,1.389-11.556
		c0-2.272-0.189-4.608-0.567-7.008c-0.379-2.399-0.568-4.862-0.568-7.388c0-2.104-0.044-4.313-0.127-6.63
		c-0.085-2.314-0.126-4.735-0.126-7.262c0-1.346-0.126-2.715-0.379-4.104c-0.253-1.39-0.379-2.757-0.379-4.104
		c0-1.431,0-2.945,0-4.546c0-1.599-0.126-3.072-0.379-4.42c-0.422-2.778-1.306-4.84-2.651-6.188
		c-0.928-0.506-2.21-0.926-3.852-1.263c-1.642-0.336-2.463-1.179-2.463-2.526c0-1.431,1.389-2.21,4.167-2.336
		s4.841-0.189,6.188-0.189c5.051,0,8.966,1.054,11.744,3.157c1.851,1.348,3.113,2.547,3.788,3.599
		c0.673,1.054,1.725,2.506,3.157,4.357c0.673,1.6,1.578,3.03,2.715,4.293s2.167,2.695,3.094,4.294c0.673,1.6,1.473,3.2,2.399,4.799
		c0.926,1.6,1.851,3.115,2.778,4.546c1.851,3.2,3.704,6.231,5.557,9.092c1.851,2.863,4.124,5.557,6.819,8.082
		c2.103,2.358,4.312,5.032,6.63,8.02c2.314,2.989,4.608,5.493,6.882,7.514c0-1.851-0.59-4.84-1.768-8.966
		c-0.423-2.526-0.632-5.977-0.632-10.355c0-3.451-0.17-7.009-0.505-10.671c-0.338-3.662-0.884-6.756-1.642-9.281
		c-0.675-1.599-1.18-2.968-1.516-4.104c-0.337-1.137-0.716-2.545-1.137-4.23c-0.758-1.346-1.537-2.482-2.336-3.409
		c-0.801-0.926-1.537-2.062-2.21-3.41c-1.853-2.272-3.788-3.871-5.809-4.799c-1.181-0.252-2.8-0.609-4.862-1.073
		c-2.063-0.462-3.094-1.282-3.094-2.462c0-2.021,2.062-2.526,6.188-1.516c4.124,1.01,6.902,1.516,8.335,1.516h3.409
		c1.346,0,4.547-0.736,9.598-2.21c5.052-1.473,8.502-2.546,10.355-3.221c4.881-1.598,8.922-4.041,12.123-7.324
		c0.673-0.673,1.704-1.241,3.094-1.705C323.563,119.344,324.468,119.912,324.89,121.511z"/>
	<path d="M412.908,124.668c3.956,0,8.796-0.799,14.522-2.399c0.505,0,0.967-0.126,1.389-0.379c0.421-0.253,1.011-0.462,1.769-0.632
		c0.167,0,1.304-0.252,3.409-0.757c0.673,0,1.705-0.295,3.094-0.885c1.39-0.588,2.084-0.041,2.084,1.642
		c0,2.948-1.137,4.673-3.41,5.178c-2.525,0-3.914,0-4.167,0c-0.252,0-1.306,0.338-3.157,1.011c-1.348,0.422-2.421,0.864-3.22,1.325
		c-0.801,0.464-1.663,0.947-2.589,1.453c-2.105,1.095-3.558,2.632-4.356,4.608c-0.802,1.979-1.537,3.979-2.21,5.999
		c-0.928,2.105-1.727,4.293-2.399,6.566c-0.675,2.273-1.39,4.463-2.147,6.566c-0.842,2.526-1.621,4.653-2.336,6.378
		c-0.716,1.727-1.284,3.978-1.705,6.756c-0.675,3.453-1.369,5.745-2.083,6.882c-0.717,1.137-1.748,2.968-3.094,5.493
		c-2.778,5.052-4.758,8.84-5.936,11.366c-2.021,3.705-4.021,7.557-5.998,11.555c-1.979,3.999-3.979,7.64-5.999,10.923
		c-1.433,2.021-2.651,3.896-3.662,5.62c-1.01,1.726-2.105,3.39-3.283,4.987c-1.348,1.601-2.651,3.391-3.915,5.367
		c-1.263,1.979-2.357,3.643-3.283,4.988c-1.433,2.105-3.115,4.82-5.051,8.146c-1.938,3.326-3.958,5.662-6.062,7.008
		c-0.928,0.758-1.831,1.348-2.715,1.769c-0.885,0.422-1.705,1.01-2.463,1.768c-1.348,1.096-2.989,2.336-4.925,3.726
		c-1.938,1.389-3.832,2.421-5.683,3.094c-0.928,0.253-1.916,0.609-2.968,1.073c-1.054,0.462-1.916,0.904-2.589,1.326
		c-1.18,0.505-2.273,0.926-3.283,1.263c-1.011,0.336-1.979,0.841-2.904,1.516c-1.854,0.673-3.706,1.598-5.557,2.778
		c-1.851,1.178-3.788,2.104-5.809,2.778c-1.179,0.252-2.273,0.546-3.283,0.884c-1.011,0.335-2.23,0.714-3.663,1.137
		c-0.925,0.252-1.851,0.673-2.777,1.263c-0.926,0.588-2.062,0.884-3.41,0.884c-1.851-1.433-5.071-3.347-9.66-5.746
		c-4.588-2.399-6.883-4.988-6.883-7.767c0-0.675,0-2.166,0-4.482c0-2.314,0.802-3.473,2.399-3.473c1.18,0,1.769,1.389,1.769,4.167
		c0.169,1.18,0.485,2.001,0.946,2.463c0.464,0.462,0.821,1.029,1.074,1.704c2.525,0,4.925,0.21,7.197,0.632
		c1.181,0,2.295,0.23,3.347,0.694c1.054,0.462,2.127,0.694,3.221,0.694c3.283,0,5.809-0.548,7.576-1.642
		c5.557-2.777,10.396-4.84,14.522-6.188c2.104-0.758,3.789-1.409,5.052-1.957c1.263-0.547,2.904-1.409,4.925-2.589
		c3.703-2.525,6.229-4.714,7.577-6.566c0.758-1.346,1.535-2.82,2.336-4.42c0.799-1.599,1.746-3.114,2.841-4.547
		c0.926-1.346,1.788-2.819,2.589-4.42c0.8-1.598,1.662-3.113,2.589-4.546c2.356-3.451,4.083-6.44,5.178-8.966
		c0.253-0.42,1.073-2.125,2.463-5.114c1.389-2.987,2.083-4.609,2.083-4.862c0-0.673-0.631-1.304-1.894-1.894
		c-1.263-0.588-1.895-1.81-1.895-3.662c-0.505-3.199-0.969-5.725-1.389-7.577c-0.675-1.851-1.243-4.377-1.705-7.577
		c-0.464-3.198-1.032-5.598-1.705-7.198c-0.758-1.431-1.642-3.514-2.651-6.251c-1.011-2.734-1.769-5.029-2.273-6.882
		c-0.422-3.198-0.884-5.725-1.39-7.577c-0.169-0.673-0.485-1.872-0.946-3.599c-0.464-1.725-0.695-2.925-0.695-3.6
		c-1.18-0.505-2.695-0.758-4.546-0.758c-2.778,0.506-5.051,0.758-6.819,0.758c-3.705,0-5.556-1.263-5.556-3.788
		c0-1.851,1.136-2.778,3.409-2.778c0.505,0.17,1.326,0.442,2.463,0.821c1.136,0.379,1.913,0.567,2.336,0.567
		c2.104,0,4.02-0.23,5.746-0.694c1.724-0.462,3.514-1.073,5.366-1.831c3.199-0.673,7.198-0.758,11.997-0.252
		c2.104,0.675,3.956,1.073,5.557,1.199c1.598,0.126,3.577-0.272,5.935-1.199c0.673-0.253,1.346-0.547,2.021-0.885
		c0.673-0.335,1.473-0.757,2.399-1.263c0.253,0,1.642-0.799,4.168-2.399c0.925,0,1.62,0.591,2.083,1.769
		c0.462,1.18,0.316,2.105-0.441,2.778c-1.096,1.348-2.443,2.483-4.041,3.409c-1.601,0.675-2.759,1.011-3.473,1.011
		c-0.717,0-1.537,0.126-2.463,0.378c-1.348,0.423-2.253,0.928-2.715,1.516c-0.464,0.59-1.032,1.011-1.705,1.263
		c0.421,2.778,0.862,5.474,1.326,8.082c0.462,2.61,1.03,5.557,1.705,8.84c0.505,3.2,0.862,6.125,1.073,8.776
		c0.209,2.652,1.029,5.115,2.462,7.388c2.526-3.198,3.872-5.051,4.041-5.557c0.758-0.925,1.409-1.724,1.958-2.398
		c0.546-0.673,1.156-1.684,1.831-3.031c0.925-2.104,1.977-4.124,3.157-6.062c1.178-1.936,2.314-3.956,3.409-6.062
		c0.505-0.926,1.093-1.957,1.768-3.094c0.673-1.137,1.137-2.293,1.39-3.473c0.252-0.673,0.379-1.305,0.379-1.895
		c0-0.588,0.083-1.346,0.252-2.273c0-0.42,0.231-0.861,0.695-1.325c0.461-0.462,0.82-1.03,1.073-1.705
		c0.252-0.505,0.42-0.988,0.505-1.452c0.083-0.462,0.379-1.03,0.884-1.705c0.253-0.42,0.483-0.862,0.694-1.326
		c0.21-0.461,0.568-1.029,1.074-1.704c1.598-3.451,2.398-6.902,2.398-10.355c0-1.431-2.189-2.146-6.566-2.146
		c-1.18,0-2.506-0.104-3.978-0.316c-1.474-0.209-2.21-1.114-2.21-2.715c0-1.431,2.525-2.021,7.577-1.768
		C407.352,124.541,410.888,124.668,412.908,124.668z"/>
	<path d="M440.69,133.255c0.926-0.42,2.021-1.22,3.283-2.399c1.263-1.178,2.608-1.768,4.041-1.768h0.379
		c4.294,0,8.859,0.864,13.701,2.589c4.841,1.727,9.661,2.506,14.46,2.336l6.566-0.379c0.758,0,1.137,0.17,1.137,0.505
		c0,0.338-0.379,0.506-1.137,0.506c-3.453,0-5.263,1.053-5.431,3.156c-0.252,1.348-0.675,3.179-1.263,5.493
		c-0.59,2.316-0.969,4.021-1.136,5.115c-0.506,2.104-0.864,4.125-1.074,6.062c-0.211,1.938-0.315,3.958-0.315,6.062
		c0,1.6-0.189,3.725-0.568,6.377c-0.379,2.651-0.568,4.652-0.568,5.998c-0.422,2.105-0.568,4.356-0.441,6.756
		c0.126,2.399,0.189,4.4,0.189,5.999l-3.157,29.045c-0.253,2.021,0.777,3.599,3.094,4.735c2.314,1.137,4.146,2.083,5.493,2.841
		c1.178,0.675,3.031,1.348,5.557,2.021c2.525,0.675,4.714,1.011,6.566,1.011h2.399c2.525,0,4.376-0.336,5.557-1.011
		c1.093-0.673,1.704-1.535,1.831-2.589c0.126-1.052,1.241-1.452,3.347-1.199c0.673,0.253-0.506,2.569-3.536,6.945
		c-1.096,0.928-2.399,1.433-3.915,1.516c-1.516,0.085-2.948,0.252-4.293,0.505c-2.778,0.422-5.557,1.348-8.335,2.778
		c-1.348,0.675-4.211,1.01-8.587,1.01c-0.928-0.673-3.391-1.24-7.388-1.704c-4-0.462-6.926-1.03-8.776-1.705
		c-1.181-0.253-2.695-0.547-4.547-0.884c-1.853-0.336-3.115-0.632-3.788-0.884c-2.273-0.926-5.01-1.39-8.208-1.39
		c-0.506,0-0.758-0.168-0.758-0.505c0-0.336,0.335-0.632,1.01-0.884c0.758-0.253,1.535-0.379,2.337-0.379
		c0.799,0,1.661-0.336,2.589-1.011c0.167-0.167,0.546-0.546,1.136-1.136c0.588-0.589,1.22-1.22,1.895-1.895
		c1.599-1.599,2.399-4.377,2.399-8.335c0-0.673,0.126-1.01,0.379-1.01c0.42-0.421,0.758-0.758,1.01-1.011
		c0.506-0.925,0.695-2.251,0.568-3.978c-0.126-1.725,0.021-3.262,0.442-4.609c0.253-1.683,0.505-3.43,0.758-5.24
		c0.252-1.81,0.588-3.515,1.01-5.115c0.673-3.03,1.368-6.144,2.084-9.345c0.714-3.198,1.073-6.986,1.073-11.365
		c0-2.778-0.063-6.63-0.189-11.555s-0.526-8.65-1.199-11.176c-0.506-1.684-0.802-3.492-0.885-5.431
		c-0.084-1.936-0.252-3.703-0.505-5.304c-0.505-2.103-1.221-3.366-2.146-3.788c-1.768-1.178-3.115-1.768-4.041-1.768h-1.137
		c-0.843,0-1.979,0.252-3.409,0.757c-2.948,1.096-4.673,1.643-5.178,1.643h-1.011C440.059,133.593,440.269,133.255,440.69,133.255z"
		/>
</g>
</svg>
