<?xml version="1.0" encoding="utf-8"?>
<!-- Generator: Adobe Illustrator 15.0.0, SVG Export Plug-In . SVG Version: 6.00 Build 0)  -->
<!DOCTYPE svg PUBLIC "-//W3C//DTD SVG 1.1//EN" "http://www.w3.org/Graphics/SVG/1.1/DTD/svg11.dtd">
<svg version="1.1" id="Layer_1" xmlns="http://www.w3.org/2000/svg" xmlns:xlink="http://www.w3.org/1999/xlink" x="0px" y="0px"
	 width="631.744px" height="864.25px" viewBox="0 0 631.744 864.25" enable-background="new 0 0 631.744 864.25"
	 xml:space="preserve">
<g>
	<path fill="#231F20" stroke="#231F20" stroke-miterlimit="10" d="M292.945,238.71c-7.93,0.422-31.931,32.912-29.193,35.93
		c2.737,3.019,16.281-7.859,26.386-10.105c10.105-2.246,23.93-0.071,27.508-3.369C321.226,257.87,300.875,238.289,292.945,238.71z"
		/>
	<path fill="#231F20" stroke="#231F20" stroke-miterlimit="10" d="M631.474,644.603c-7.859-19.087-28.071-93.194-28.071-93.194
		s-54.456,28.632-65.123,34.808s-64.561,19.089-64.561,19.089l-144.279,35.937l-8.983,5.053c0,0-3.93,6.736-6.737,8.983
		s-11.79,2.245-16.296-2.808c-4.507-5.053-5.037-11.229-5.599-24.702c-0.562-13.474,6.737-18.526,11.228-24.14
		c0,0-1.049-2.461-2.633-5.932c12.211-2.613,48.357-10.447,61.016-14.284c15.327-4.646,125.028-35.038,142.599-43.226
		c17.57-8.188,70.175-32.002,89.263-46.036c19.087-14.035,21.332-22.458,21.893-29.756c0.56-7.297-11.002-7.909-11.229-15.719
		c-0.227-7.809-1.684-52.21-0.561-75.229c1.124-23.018-5.053-71.86-29.754-113.404c-24.702-41.544-51.087-56.703-63.438-78.036
		s-15.292-55.616-20.345-75.265s-23.022-33.505-25.268-41.926c-2.246-8.421-5.475-29.335-15.58-42.248
		C438.91,9.656,441.716,2.358,438.91,2.919c-2.807,0.562-19.649,21.895-19.649,21.895s2.806-16.342-2.808-21.925
		c-5.614-5.584-12.351-7.268-35.93,41.013s-27.509,97.123-27.509,97.123s-32.562,16.281-69.615,36.492s-40.422,25.824-49.404,49.965
		c-8.982,24.141,7.859,40.983-72.983,67.369C80.17,321.236,45.924,324.605,30.767,326.289c-15.158,1.684-25.827,5.614-29.756,12.351
		c-3.93,6.737,5.614,53.333,20.772,79.719c15.158,26.387,25.825,37.055,40.421,43.23s39.859,3.93,39.859,3.93
		s10.106,26.949,25.825,29.194s55.016-9.545,67.367-13.475c12.352-3.929,68.28-14.036,68.28-14.036s26.598,0.56,29.967,6.737
		c3.369,6.178-14.592,99.37-13.472,108.353c0.112,0.896,0.396,1.77,0.758,2.628c-0.296,0.556-0.598,1.124-0.909,1.711
		c0.794,3.608,1.466,7.164,2.868,10.534c1.477,1.42,2.418,3.267,2.573,5.339h2.574c0,0-6.175,17.968-5.333,30.879
		c0.842,12.911,0,19.087,0,19.087s-10.123,6.264-14.877,9.545c-1.921,1.325-28.632,24.7-21.895,63.438
		c6.737,38.736,46.005,28.07,46.005,28.07s42.139,109.476,49.435,110.598S639.051,663.004,631.474,644.603z M398.489,106.217
		c1.123-43.79,27.509-70.175,27.509-70.175c21.334,26.947,21.895,44.352,25.824,66.807s0,78.036,0,78.036l-10.105,6.737
		l-10.667-2.807l-13.474,8.982l-5.402-5.053l-8.633,5.053C403.542,193.797,397.367,150.007,398.489,106.217z M161.015,474.502
		c0,0-21.896,8.981-40.422-6.737s71.862-14.036,80.843-15.157c8.98-1.122,28.072-16.843,40.421-16.843
		c12.349,0,42.669,3.93,51.088,0c8.418-3.929,11.228-17.964,11.228-17.964s-5.563,3.949-17.403,2.806
		c-11.84-1.143-46.594-5.051-65.685-2.806c-19.09,2.245-22.647,14.52-37.053,16.843c-14.405,2.322-87.018,14.032-87.018,14.032
		s-29.193,15.161-54.457-30.875c-25.263-46.037-19.088-38.738-19.088-38.738s28.632-10.667,33.123-25.263
		c4.491-14.597,5.052-21.333,25.824-25.264c20.772-3.93,73.544-14.036,114.527-33.124c40.983-19.087,39.3-35.368,43.229-45.473
		c3.929-10.105,5.614-42.668,47.719-61.755s75.229-31.439,75.229-31.439l12.912,2.246l-16.28,11.79l16.28,0.562l-24.701,11.79
		h22.456l-26.386,15.158h16.28l-15.158,12.35l16.842-1.123l-7.859,5.614l31.438-1.123l-6.737,9.544l47.158,0.561l-11.228,10.105
		l61.754,7.86l-12.912,9.543l19.649,8.421l-29.192,10.667l22.456,9.543l-63.438,8.983l12.351,6.175l-57.263,19.649l17.965,4.492
		l-40.421,19.087h16.28l-40.421,8.983l35.93,5.614l-6.737,2.245l36.491,8.983l-9.544,4.491l68.491,15.72l-13.474,6.176
		l62.878,33.124l-29.193-7.3l34.246,33.685l-28.632-11.227l28.632,42.666l-16.281-9.545l16.281,37.615l-20.211-14.597l20.491,28.632
		c0,0-14.47,1.611-16.561,1.684c-16.838,0.583-115.087,39.295-129.687,44.35c-14.599,5.054-53.33,9.546-57.262,2.248
		s36.488-110.6,14.029-116.773C292.375,449.238,161.015,474.502,161.015,474.502z M294.081,733.909
		c-2.183,0.656-4.213,0.824-6.093,0.495c-1.879-0.327-3.426-1.319-4.636-2.959c-1.253-1.7-1.961-3.61-2.121-5.719
		c-0.164-2.117,0.078-4.279,0.725-6.503c0.646-2.223,1.628-4.392,2.94-6.502c1.315-2.108,2.82-4.005,4.517-5.678
		c1.697-1.674,3.527-3.015,5.485-4.033c1.96-1.01,3.89-1.546,5.79-1.606c0.524,0,0.93,0.074,1.213,0.209
		c0.281,0.14,0.425,0.313,0.425,0.534c0,0.222-0.164,0.442-0.487,0.656c-0.323,0.223-0.809,0.362-1.453,0.416
		c-1.941,0.16-3.677,0.75-5.214,1.769c-1.537,1.017-2.859,2.263-3.971,3.743c-1.113,1.479-1.99,3.101-2.638,4.854
		c-0.646,1.755-1.03,3.497-1.151,5.224c-0.121,1.728,0.02,3.349,0.425,4.855c0.404,1.513,1.112,2.706,2.123,3.582
		c1.333,1.206,3.068,1.613,5.212,1.232c2.141-0.382,4.396-1.286,6.758-2.713c2.366-1.426,4.689-3.239,6.974-5.431
		c2.281-2.195,4.243-4.5,5.877-6.916c1.638-2.411,2.791-4.783,3.456-7.111c0.669-2.338,0.556-4.381-0.332-6.136
		c-0.97-1.921-2.467-3.087-4.487-3.495c-2.021-0.416-4.314-0.395-6.879,0.04c-2.568,0.442-5.284,1.14-8.153,2.097
		c-2.871,0.964-5.619,1.827-8.246,2.591c-2.626,0.771-5,1.293-7.121,1.567c-2.124,0.274-3.749-0.026-4.881-0.904
		c-0.93-0.716-1.648-1.62-2.15-2.719c-0.507-1.098-0.81-2.29-0.911-3.576c-0.101-1.291,0.01-2.639,0.333-4.031
		c0.323-1.399,0.849-2.758,1.576-4.077c-3.112-0.216-5.718,0.087-7.819,0.903c-2.101,0.823-3.759,1.881-4.971,3.174
		c-1.214,1.286-2.022,2.686-2.424,4.192c-0.405,1.514-0.486,2.853-0.244,4.031c0.244,1.186,0.767,2.103,1.577,2.759
		c0.808,0.656,1.839,0.743,3.093,0.248c0.727-0.274,1.13-0.221,1.21,0.161c0.083,0.388-0.051,0.911-0.394,1.565
		c-0.343,0.658-0.869,1.334-1.574,2.017c-0.708,0.689-1.507,1.232-2.396,1.648c-0.89,0.407-1.84,0.575-2.849,0.488
		c-1.012-0.081-1.98-0.617-2.911-1.601c-0.891-0.878-1.436-2.097-1.638-3.662c-0.202-1.562-0.049-3.235,0.457-5.023
		c0.503-1.781,1.342-3.55,2.517-5.305c1.171-1.753,2.696-3.308,4.575-4.646c1.88-1.345,4.102-2.35,6.67-3.006
		c2.565-0.656,5.485-0.798,8.759-0.41c1.25-1.592,2.808-2.965,4.667-4.116c1.859-1.153,4.021-1.89,6.487-2.218
		c3.395-0.495,6.315-0.522,8.759-0.087c2.445,0.442,4.435,1.112,5.972,2.015c1.534,0.904,2.636,1.923,3.303,3.048
		c0.666,1.125,0.919,2.123,0.757,3c-0.242,1.212-0.81,2.183-1.698,2.926c-0.888,0.737-2.313,1.219-4.272,1.441
		c-1.96,0.22-4.568,0.106-7.822-0.329c-3.253-0.442-7.365-1.238-12.335-2.39l-2.122-0.41c-0.567,1.48-0.627,3.101-0.183,4.855
		c0.323,1.206,1.061,2.043,2.213,2.512c1.152,0.462,2.578,0.695,4.275,0.695c1.697,0,3.596-0.167,5.698-0.495
		c2.101-0.328,4.274-0.656,6.516-0.984c2.243-0.328,4.465-0.59,6.668-0.783c2.202-0.194,4.264-0.168,6.184,0.08
		c1.918,0.249,3.616,0.783,5.091,1.607c1.475,0.824,2.577,2.082,3.305,3.783c0.728,1.702,0.898,3.649,0.516,5.847
		c-0.385,2.189-1.184,4.452-2.396,6.783c-1.213,2.337-2.737,4.667-4.577,6.998c-1.838,2.331-3.849,4.5-6.031,6.502
		c-2.183,2.003-4.435,3.743-6.758,5.224C298.516,732.183,296.262,733.253,294.081,733.909z M474.28,649.655l-4.491-5.053
		l-3.368,29.756l-11.228-33.685l-8.42,59.51l-4.491-10.666l-12.351,57.264l-3.929-17.966l-21.895,60.632l-5.053-7.86l-24.141,39.3
		v-12.353l-26.053,40.083l-44.684-102.955c0,0,14.596-16.842,19.649-24.14s8.421-31.439,6.737-38.736
		c-1.684-7.298-18.261-15.72-18.261-15.72s9.278-7.299,14.331-10.352s6.176-8.737,6.176-8.737l142.698-34.036l1.582,7.644
		l-11.229-5.053L474.28,649.655z"/>
	<polygon fill="#231F20" stroke="#231F20" stroke-miterlimit="10" points="356.948,589.027 348.86,595.203 379.404,621.027 
		397.369,586.782 387.825,583.975 377.72,605.305 	"/>
	<polygon fill="#231F20" stroke="#231F20" stroke-miterlimit="10" points="413.089,615.975 413.089,574.812 405.79,581.169 
		405.79,607.554 	"/>
	<polygon fill="#231F20" stroke="#231F20" stroke-miterlimit="10" points="443.965,565.449 436.667,569.379 436.667,602.501 
		443.404,605.305 444.526,574.812 465.299,595.394 475.506,595.394 475.506,558.15 468.105,558.15 468.105,587.345 	"/>
	<polygon fill="#231F20" stroke="#231F20" stroke-miterlimit="10" points="506.281,586.782 506.281,566.011 523.685,539.624 
		510.211,542.432 502.352,558.15 495.053,551.408 488.674,555.345 499.544,567.134 499.544,583.975 	"/>
	<polygon fill="#231F20" stroke="#231F20" stroke-miterlimit="10" points="540.244,530.644 533.228,536.255 533.228,574.812 
		562.421,558.15 558.491,551.408 541.649,558.15 	"/>
</g>
</svg>
